<svg id="Layer_1" data-name="Layer 1" xmlns="http://www.w3.org/2000/svg" viewBox="0 0 99.89 76.14"><defs><style>.cls-1{fill:#0071a9;}.cls-2{fill:#fff;}.cls-3{fill:none;}.cls-4{fill:#c82227;}</style></defs><path class="cls-1" d="M76.12,37.78A38.06,38.06,0,1,0,63.57,67.06,20.55,20.55,0,0,1,76.12,37.78Z" transform="translate(0 -0.73)"/><path class="cls-2" d="M30.61,25.23a21,21,0,0,0-.81-4.86c-1.33-4.86-2.42-8.19.17-10.89a9.79,9.79,0,0,1,5.87-3.33,9.69,9.69,0,0,1,9.41,2.64,12.06,12.06,0,0,1,3.42,10.42A24.27,24.27,0,0,1,47,25.63Z" transform="translate(0 -0.73)"/><path class="cls-3" d="M30.61,25.23a21,21,0,0,0-.81-4.86c-1.33-4.86-2.42-8.19.17-10.89a9.79,9.79,0,0,1,5.87-3.33,9.69,9.69,0,0,1,9.41,2.64,12.06,12.06,0,0,1,3.42,10.42A24.27,24.27,0,0,1,47,25.63Z" transform="translate(0 -0.73)"/><path class="cls-1" d="M32.69,24.67c-.15-3.82-1.85-7.33-2.19-11.12s3.22-6.45,6.7-6.62c4.5-.23,7.86,3.8,9.08,7.73,1.12,3.56.06,7.92-1.37,11.27l2.92-1.36-16.38-.4c-1.4,0-4.51,2-1.69,2.11l16.38.41c.94,0,2.52-.4,2.92-1.36,1.88-4.39,2.68-9.65.49-14A11.49,11.49,0,0,0,37.8,4.88c-4,.41-9,2.28-10.84,6.16-2.18,4.57,1.37,10.06,1.56,14.75C28.56,26.91,32.75,26.12,32.69,24.67Z" transform="translate(0 -0.73)"/><path class="cls-2" d="M58.59,37.27c1.72,3.88-1.44,5.84-1.11,7s2.7,2.24,2.65,4.79.17,2.46-1.08,5c-1,2.12-4.53,1.44-5.69,3.48-.78,1.36,1.53,4.12.22,5.94-1.64,2.3-3.64,3.5-6.36,4.76-11,5.09-24.62-.93-29.85-12.27s-.5-24.64,10.55-29.73S53.54,25.85,58.59,37.27Z" transform="translate(0 -0.73)"/><path class="cls-3" d="M58.59,37.27c1.72,3.88-1.44,5.84-1.11,7s2.7,2.24,2.65,4.79.17,2.46-1.08,5c-1,2.12-4.53,1.44-5.69,3.48-.78,1.36,1.53,4.12.22,5.94-1.64,2.3-3.64,3.5-6.36,4.76-11,5.09-24.62-.93-29.85-12.27s-.5-24.64,10.55-29.73S53.54,25.85,58.59,37.27Z" transform="translate(0 -0.73)"/><path class="cls-1" d="M56.5,37.83c.83,2.15.21,3.43-.81,5.31-.85,1.57.17,2.66,1.2,3.78a5.58,5.58,0,0,1,.75,5.7c-.49,1.24-.77,1.55-2,1.93A10.35,10.35,0,0,0,52.55,56c-1.7,1.21-1.58,2.94-1,4.72.4,1.36.51,2.08-.45,3.22A11.07,11.07,0,0,1,47.5,66.5a18.38,18.38,0,0,1-14,1.21A23.06,23.06,0,0,1,17.39,45,20,20,0,0,1,35.23,25.84a21.48,21.48,0,0,1,21.27,12c.84,1.82,5,.6,4.18-1.12-3.92-8.53-12.5-13.58-21.77-14a25,25,0,0,0-23.13,13C11.16,44.38,12.86,55.06,19,62.45a25.38,25.38,0,0,0,25.36,8.43c3.94-1,9.19-3.37,11.25-7.11,1-1.89.13-3.67-.26-5.6-.13-.64,3.91-1.88,4.58-2.4,2.82-2.21,3.16-7.62,1.1-10.34-.42-.56-1.16-1-1.43-1.7a10.53,10.53,0,0,0,.8-1.35,6.49,6.49,0,0,0,.31-5.67C60,34.84,55.81,36,56.5,37.83Z" transform="translate(0 -0.73)"/><path class="cls-3" d="M53.11,57.92c-.26-.56-9.65-7.31-20-3.79" transform="translate(0 -0.73)"/><path class="cls-1" d="M55.19,57.36c-1.39-2.09-5.16-3.23-7.37-4a24.8,24.8,0,0,0-15.45.22c-.23.07-1.87.79-1.23,1.24s2,0,2.7-.2c4-1.27,8.27-.5,12.09,1,1.4.53,4.3,1.69,5.09,2.87s4.55-.56,4.17-1.12Z" transform="translate(0 -0.73)"/><path class="cls-3" d="M57.68,45a29.1,29.1,0,0,0-27.32-4.07" transform="translate(0 -0.73)"/><path class="cls-1" d="M59.63,44.17c-8.12-6.88-20.45-7.39-30.06-4-.39.14-1.82.9-1.16,1.5s2,.19,2.73-.06c7.88-2.78,18.08-1.39,24.59,4.13,1,.87,4.87-.74,3.9-1.56Z" transform="translate(0 -0.73)"/><path class="cls-4" d="M94.58,44.73a18.08,18.08,0,1,0,5.31,12.8A18,18,0,0,0,94.58,44.73Z" transform="translate(0 -0.73)"/><path class="cls-2" d="M94.71,49.51A5,5,0,0,1,93.1,53l-.17.17L83.55,63a61.28,61.28,0,0,1-5.1,4.86c-1.4,1.14-2.39,1.71-3,1.71a4.46,4.46,0,0,1-2.27-.86A4.31,4.31,0,0,1,71.48,67a13.17,13.17,0,0,1-.63-3.22,44.2,44.2,0,0,1-.3-5.33,4.06,4.06,0,0,1,1.31-2.89,4,4,0,0,1,2.88-1.33c1,0,1.6.91,1.79,2.75,0,.21,0,.37,0,.47a13.77,13.77,0,0,0,.56,2.94q.31.84.87.84a2,2,0,0,0,.85-.5,18.65,18.65,0,0,0,1.48-1.34L90,49.81A14.78,14.78,0,0,1,92.15,48a3.21,3.21,0,0,1,1.63-.62.75.75,0,0,1,.71.38A2.79,2.79,0,0,1,94.71,49Z" transform="translate(0 -0.73)"/></svg>