<svg id="Layer_1" data-name="Layer 1" xmlns="http://www.w3.org/2000/svg" viewBox="0 0 216 216"><defs><style>.cls-1{fill:#0071a9;}</style></defs><path class="cls-1" d="M108,0A108,108,0,1,0,216,108,108,108,0,0,0,108,0Zm34.66,62.69c-4,0-8-.08-11.95,0a28.14,28.14,0,0,0-5.41.63,7.55,7.55,0,0,0-6.1,6.39,22.35,22.35,0,0,0-.45,4.16c0,5.1,0,10.19,0,15.29,0,.15,0,.31,0,.54h22.9c1,0,1,0,.86.91-.52,4-1.06,8-1.57,12q-.65,5-1.25,10c-.16,1.28-.13,1.29-1.41,1.29H118.73v60.59c0,.49,0,1,0,1.47H93.47c0-.33,0-.67,0-1V114H73.42c-.89,0-.89,0-.89-.86q0-11.28,0-22.57c0-.69.21-.86.87-.86,6.41,0,12.82,0,19.23,0h.9V89c0-6.25,0-12.51,0-18.76A34.34,34.34,0,0,1,96.8,55.75a26.3,26.3,0,0,1,14-13.27A33.1,33.1,0,0,1,124.1,40c5.25.08,10.49.32,15.74.51,1,0,1.95.2,2.92.25.55,0,.73.23.73.77,0,3.12,0,6.23,0,9.35,0,3.67,0,7.34,0,11C143.49,62.5,143.31,62.69,142.66,62.69Z"/></svg>