<svg id="Layer_1" data-name="Layer 1" xmlns="http://www.w3.org/2000/svg" viewBox="0 0 216 216"><defs><style>.cls-1,.cls-2{fill:#0071a9;}.cls-1{fill-rule:evenodd;}</style></defs><path class="cls-1" d="M108,0C48.36,0,0,49.58,0,110.73c0,48.93,31,90.44,73.86,105.08,5.39,1,7.38-2.4,7.38-5.33,0-2.64-.1-11.36-.15-20.61C51,196.56,44.7,176.8,44.7,176.8c-4.91-12.8-12-16.2-12-16.2-9.8-6.88.74-6.73.74-6.73C44.3,154.65,50,165.28,50,165.28c9.63,16.93,25.26,12,31.43,9.2,1-7.15,3.76-12,6.85-14.8-24-2.8-49.2-12.3-49.2-54.73A43.48,43.48,0,0,1,50.21,75.23c-1.12-2.79-4.81-14.05,1-29.31,0,0,9.07-3,29.71,11.35a100.17,100.17,0,0,1,54.09,0C155.67,43,164.73,45.92,164.73,45.92c5.87,15.26,2.18,26.52,1.06,29.31A43.38,43.38,0,0,1,176.9,105c0,42.53-25.26,51.9-49.31,54.64,3.87,3.43,7.32,10.17,7.32,20.5,0,14.82-.12,26.74-.12,30.39,0,3,1.94,6.4,7.41,5.32,42.89-14.66,73.8-56.16,73.8-105.07C216,49.58,167.65,0,108,0Z"/><path class="cls-2" d="M40.91,159a1.35,1.35,0,0,1-1.86.34c-.78-.36-1.22-1.11-1-1.67s1.08-.72,1.86-.34,1.24,1.12,1,1.67Zm-1.33-1"/><path class="cls-2" d="M45.28,164c-.51.49-1.52.26-2.21-.51a1.73,1.73,0,0,1-.31-2.3c.53-.49,1.51-.26,2.21.51s.85,1.81.31,2.3Zm-1-1.13"/><path class="cls-2" d="M49.54,170.37c-.66.47-1.75,0-2.42-1s-.66-2.16,0-2.63,1.74-.05,2.41.92.66,2.19,0,2.67Zm0,0"/><path class="cls-2" d="M55.37,176.53c-.59.67-1.85.49-2.77-.42S51.39,174,52,173.28s1.87-.48,2.8.42,1.22,2.17.59,2.83Zm0,0"/><path class="cls-2" d="M63.42,180.11c-.26.87-1.48,1.26-2.7.89s-2-1.39-1.77-2.27,1.47-1.28,2.7-.89,2,1.39,1.77,2.27Zm0,0"/><path class="cls-2" d="M72.26,180.77c0,.92-1,1.67-2.29,1.69s-2.34-.71-2.35-1.61,1-1.67,2.3-1.69,2.34.71,2.34,1.61Zm0,0"/><path class="cls-2" d="M80.48,179.34c.16.89-.74,1.8-2,2s-2.41-.32-2.57-1.2.75-1.83,2-2.07,2.42.31,2.58,1.22Zm0,0"/></svg>