<svg id="Layer_1" data-name="Layer 1" xmlns="http://www.w3.org/2000/svg" viewBox="0 0 924 216"><defs><style>.cls-1,.cls-2{fill:#0071a9;}.cls-2{fill-rule:evenodd;}</style></defs><path class="cls-1" d="M108,0A108,108,0,1,0,216,108,108,108,0,0,0,108,0ZM75.78,166.22H51.61V88.44H75.78ZM63.7,77.81a14,14,0,1,1,14-14A14,14,0,0,1,63.7,77.81Zm102.62,88.41H142.16V128.4c0-9-.16-20.63-12.56-20.63-12.57,0-14.51,9.83-14.51,20v38.48H90.94V88.44h23.19V99.07h.32c3.23-6.11,11.11-12.56,22.87-12.56,24.48,0,29,16.11,29,37.05Z" transform="translate(0 0)"/><circle class="cls-1" cx="344.03" cy="107.52" r="23.2"/><path class="cls-1" d="M370.9,51.79H317.1a27.66,27.66,0,0,0-27.54,27.54v57.34a27.66,27.66,0,0,0,27.54,27.54h53.8a27.66,27.66,0,0,0,27.54-27.54V79.33A27.66,27.66,0,0,0,370.9,51.79Zm-26.7,91.13a35.43,35.43,0,1,1,35.43-35.43A35.43,35.43,0,0,1,344.2,142.92Zm36-63a8.39,8.39,0,1,1,8.39-8.39A8.39,8.39,0,0,1,380.2,79.9Z" transform="translate(0 0)"/><path class="cls-1" d="M344,0A108,108,0,1,0,452,108,108,108,0,0,0,344,0Zm64.33,136.67A37.54,37.54,0,0,1,370.9,174.1H317.1a37.54,37.54,0,0,1-37.43-37.43V79.33A37.54,37.54,0,0,1,317.1,41.9h53.8a37.54,37.54,0,0,1,37.43,37.43Z" transform="translate(0 0)"/><path class="cls-1" d="M580,0A108,108,0,1,0,688,108,108,108,0,0,0,580,0Zm34.66,62.69c-4,0-8-.08-11.95,0a28.14,28.14,0,0,0-5.41.63,7.55,7.55,0,0,0-6.1,6.39,22.35,22.35,0,0,0-.45,4.16c0,5.1,0,10.19,0,15.29,0,.15,0,.31,0,.54h22.9c1,0,1,0,.86.91-.52,4-1.06,8-1.57,12q-.65,5-1.25,10c-.16,1.28-.13,1.29-1.41,1.29H590.73v60.59c0,.49,0,1,0,1.47H565.47c0-.33,0-.67,0-1V114H545.42c-.89,0-.89,0-.89-.86q0-11.28,0-22.57c0-.69.21-.86.87-.86,6.41,0,12.82,0,19.23,0h.9V89c0-6.25,0-12.51,0-18.76a34.34,34.34,0,0,1,3.24-14.47,26.3,26.3,0,0,1,14-13.27A33.1,33.1,0,0,1,596.1,40c5.25.08,10.49.32,15.74.51,1,0,1.95.2,2.92.25.55,0,.73.23.73.77,0,3.12,0,6.23,0,9.35,0,3.67,0,7.34,0,11C615.49,62.5,615.31,62.69,614.66,62.69Z" transform="translate(0 0)"/><path class="cls-2" d="M816,0C756.36,0,708,49.58,708,110.73c0,48.93,31,90.44,73.86,105.08,5.39,1,7.38-2.4,7.38-5.33,0-2.64-.1-11.36-.15-20.61C759,196.56,752.7,176.8,752.7,176.8c-4.91-12.8-12-16.2-12-16.2-9.8-6.88.74-6.73.74-6.73,10.85.78,16.56,11.41,16.56,11.41,9.63,16.93,25.26,12,31.43,9.2,1-7.15,3.76-12,6.85-14.8-24-2.8-49.2-12.3-49.2-54.73a43.48,43.48,0,0,1,11.12-29.72c-1.12-2.79-4.81-14.05,1-29.31,0,0,9.07-3,29.71,11.35a100.17,100.17,0,0,1,54.09,0C863.67,43,872.73,45.92,872.73,45.92c5.87,15.26,2.18,26.52,1.06,29.31A43.38,43.38,0,0,1,884.9,105c0,42.53-25.26,51.9-49.31,54.64,3.87,3.43,7.32,10.17,7.32,20.5,0,14.82-.12,26.74-.12,30.39,0,3,1.94,6.4,7.41,5.32,42.89-14.66,73.8-56.16,73.8-105.07C924,49.58,875.65,0,816,0Z" transform="translate(0 0)"/><path class="cls-1" d="M748.91,159a1.35,1.35,0,0,1-1.86.34c-.78-.36-1.22-1.11-1-1.67s1.08-.72,1.86-.34,1.24,1.12,1,1.67Zm-1.33-1" transform="translate(0 0)"/><path class="cls-1" d="M753.28,164c-.51.49-1.52.26-2.21-.51a1.73,1.73,0,0,1-.31-2.3c.53-.49,1.51-.26,2.21.51s.85,1.81.31,2.3Zm-1-1.13" transform="translate(0 0)"/><path class="cls-1" d="M757.54,170.37c-.66.47-1.75,0-2.42-1s-.66-2.16,0-2.63,1.74-.05,2.41.92.66,2.19,0,2.67Zm0,0" transform="translate(0 0)"/><path class="cls-1" d="M763.37,176.53c-.59.67-1.85.49-2.77-.42s-1.21-2.16-.62-2.83,1.87-.48,2.8.42,1.22,2.17.59,2.83Zm0,0" transform="translate(0 0)"/><path class="cls-1" d="M771.42,180.11c-.26.87-1.48,1.26-2.7.89s-2-1.39-1.77-2.27,1.47-1.28,2.7-.89,2,1.39,1.77,2.27Zm0,0" transform="translate(0 0)"/><path class="cls-1" d="M780.26,180.77c0,.92-1,1.67-2.29,1.69s-2.34-.71-2.35-1.61,1-1.67,2.3-1.69,2.34.71,2.34,1.61Zm0,0" transform="translate(0 0)"/><path class="cls-1" d="M788.48,179.34c.16.89-.74,1.8-2,2s-2.41-.32-2.57-1.2.75-1.83,2-2.07,2.42.31,2.58,1.22Zm0,0" transform="translate(0 0)"/></svg>