<svg id="Layer_1" data-name="Layer 1" xmlns="http://www.w3.org/2000/svg" viewBox="0 0 98.75 55.17"><defs><style>.cls-1{fill:#c82227;}.cls-2{fill:#0071a9;}</style></defs><path class="cls-1" d="M11.64,14.7c0-1.18,1.44-2.14,3.22-2.14a4.49,4.49,0,0,1,.73.06c1.42.22,2.48,1.07,2.48,2.08v.13a2.17,2.17,0,0,1-1.39,1.64v-1.1a1.64,1.64,0,0,0-.08-.54,1.83,1.83,0,0,0-3.57.54v1.1a2.08,2.08,0,0,1-1.39-1.76Zm86.43-2.23L49.9.11a1.33,1.33,0,0,0-1.07,0L.67,12.47a1,1,0,0,0,0,1.89L13,19.79V38.31c-1,1.35-3.86,6-2.63,11,1.32,5.4-2.34,3.72-3,3.37m-.06.06c.28.76,2.14,4.89,8,.27,6.29-4.95,3.49-10.79,1.35-13.85V21.4l1.47.64,4,1.76L48.83,35.47a1.33,1.33,0,0,0,1.07,0L76.58,23.8l21.49-9.43a1,1,0,0,0,0-1.89Z" transform="translate(0 0)"/><path class="cls-2" d="M76.61,46.22V27.79L51.37,38.86a5,5,0,0,1-4,0L22.15,27.79V46.22h0c0,2.8,12.19,5.08,27.22,5.08S76.58,49,76.58,46.22Z" transform="translate(0 0)"/></svg>