<svg id="Layer_1" data-name="Layer 1" xmlns="http://www.w3.org/2000/svg" viewBox="0 0 216 216"><defs><style>.cls-1{fill:#0071a9;}</style></defs><circle class="cls-1" cx="108.03" cy="107.52" r="23.2"/><path class="cls-1" d="M134.9,51.79H81.1A27.66,27.66,0,0,0,53.56,79.33v57.34A27.66,27.66,0,0,0,81.1,164.21h53.8a27.66,27.66,0,0,0,27.54-27.54V79.33A27.66,27.66,0,0,0,134.9,51.79Zm-26.7,91.13a35.43,35.43,0,1,1,35.43-35.43A35.43,35.43,0,0,1,108.2,142.92Zm36-63a8.39,8.39,0,1,1,8.39-8.39A8.39,8.39,0,0,1,144.2,79.9Z"/><path class="cls-1" d="M108,0A108,108,0,1,0,216,108,108,108,0,0,0,108,0Zm64.33,136.67A37.54,37.54,0,0,1,134.9,174.1H81.1a37.54,37.54,0,0,1-37.43-37.43V79.33A37.54,37.54,0,0,1,81.1,41.9h53.8a37.54,37.54,0,0,1,37.43,37.43Z"/></svg>